<?xml version="1.0" encoding="UTF-8"?><svg id="Layer_1" xmlns="http://www.w3.org/2000/svg" viewBox="0 0 48 48"><defs><style>.cls-1{fill:#fff;}</style></defs><path class="cls-1" d="M11.1,35.25c2.1-1.47,4.18-2.59,6.25-3.38,2.07-.78,4.28-1.17,6.65-1.17,2.37,0,4.59,.39,6.67,1.17,2.08,.78,4.18,1.91,6.28,3.38,1.47-1.8,2.51-3.62,3.12-5.45,.62-1.83,.92-3.77,.92-5.8,0-4.83-1.62-8.88-4.88-12.12s-7.29-4.88-12.12-4.88-8.88,1.62-12.12,4.88c-3.25,3.25-4.88,7.29-4.88,12.12,0,2.03,.32,3.97,.95,5.8,.63,1.83,1.68,3.65,3.15,5.45Zm12.9-9.75c-1.93,0-3.56-.66-4.88-1.98-1.32-1.32-1.98-2.94-1.98-4.88s.66-3.56,1.98-4.88c1.32-1.32,2.94-1.98,4.88-1.97,1.93,0,3.56,.66,4.88,1.98,1.32,1.32,1.98,2.94,1.98,4.88s-.66,3.56-1.98,4.88-2.94,1.97-4.88,1.97Zm0,18.5c-2.73,0-5.32-.52-7.75-1.58-2.43-1.05-4.56-2.48-6.37-4.3-1.82-1.82-3.25-3.94-4.3-6.38-1.05-2.43-1.57-5.02-1.57-7.75s.53-5.36,1.57-7.77c1.05-2.42,2.48-4.53,4.3-6.35,1.82-1.82,3.94-3.25,6.37-4.3,2.43-1.05,5.02-1.57,7.75-1.57s5.36,.53,7.77,1.57c2.42,1.05,4.53,2.48,6.35,4.3s3.25,3.93,4.3,6.35c1.05,2.42,1.58,5.01,1.58,7.77s-.52,5.32-1.58,7.75c-1.05,2.43-2.48,4.56-4.3,6.38s-3.93,3.25-6.35,4.3c-2.42,1.05-5.01,1.58-7.77,1.58Zm0-3c1.83,0,3.62-.27,5.38-.8s3.48-1.47,5.17-2.8c-1.7-1.2-3.43-2.12-5.2-2.75-1.77-.63-3.55-.95-5.35-.95s-3.58,.32-5.35,.95-3.5,1.55-5.2,2.75c1.7,1.33,3.43,2.27,5.18,2.8,1.75,.53,3.54,.8,5.38,.8Zm0-18.5c1.13,0,2.06-.36,2.77-1.08,.72-.72,1.07-1.64,1.08-2.77,0-1.13-.36-2.06-1.08-2.77-.72-.72-1.64-1.07-2.77-1.07s-2.06,.36-2.77,1.07c-.72,.72-1.07,1.64-1.08,2.77,0,1.13,.36,2.06,1.08,2.77s1.64,1.08,2.77,1.08Z"/></svg>